<?xml version="1.0" encoding="utf-8"?>
<!-- Generator: Adobe Illustrator 16.0.0, SVG Export Plug-In . SVG Version: 6.00 Build 0)  -->
<!DOCTYPE svg PUBLIC "-//W3C//DTD SVG 1.1//EN" "http://www.w3.org/Graphics/SVG/1.1/DTD/svg11.dtd">
<svg version="1.1" id="Calque_1" xmlns="http://www.w3.org/2000/svg" xmlns:xlink="http://www.w3.org/1999/xlink" x="0px" y="0px"
	 width="32px" height="32px" viewBox="0 0 32 32" enable-background="new 0 0 32 32" xml:space="preserve">
<path fill="#FFFFFF" d="M19.587,16.001l6.097,6.097c0.396,0.396,0.396,1.038,0,1.436l-2.15,2.15c-0.396,0.396-1.038,0.396-1.436,0
	L16,19.587l-6.097,6.097c-0.396,0.396-1.038,0.396-1.434,0l-2.152-2.15c-0.396-0.396-0.396-1.038,0-1.436l6.097-6.097L6.317,9.904
	c-0.396-0.396-0.396-1.039,0-1.435L8.47,6.318c0.396-0.396,1.038-0.396,1.434,0L16,12.415l6.098-6.097
	c0.396-0.396,1.037-0.396,1.436,0l2.15,2.152c0.396,0.396,0.396,1.038,0,1.436L19.587,16.001z"/>
</svg>
