<?xml version="1.0" encoding="utf-8"?>
<!-- Generator: Adobe Illustrator 16.0.0, SVG Export Plug-In . SVG Version: 6.00 Build 0)  -->
<!DOCTYPE svg PUBLIC "-//W3C//DTD SVG 1.1//EN" "http://www.w3.org/Graphics/SVG/1.1/DTD/svg11.dtd">
<svg version="1.1" id="Calque_1" xmlns="http://www.w3.org/2000/svg" xmlns:xlink="http://www.w3.org/1999/xlink" x="0px" y="0px"
	 width="140.5px" height="139px" viewBox="0 0 140.5 139" enable-background="new 0 0 140.5 139" xml:space="preserve">
<circle fill="none" stroke="#009EE2" stroke-width="6" stroke-miterlimit="10" cx="70.713" cy="69.506" r="60.674"/>
<path fill="#FFFFFF" d="M106.857,104.003c-0.869,2.308-3.445,3.474-5.752,2.604l-18.379-6.926c-2.307-0.869-3.473-3.445-2.604-5.752
	l6.926-18.38c0.869-2.307,3.444-3.472,5.751-2.603l18.38,6.925c2.309,0.87,3.473,3.444,2.604,5.751L106.857,104.003L106.857,104.003
	z"/>
<path fill="#009EE2" d="M112.994,79.486l-19.963-7.521c-2.746-1.033-5.838,0.365-6.872,3.111l-7.522,19.962
	c-1.035,2.747,0.365,5.837,3.111,6.872l19.963,7.521c2.746,1.035,5.836-0.363,6.871-3.111l7.521-19.961
	C117.139,83.613,115.74,80.521,112.994,79.486z M106.25,89.686c-0.055,0.168-0.113,0.334-0.178,0.5
	c-1.911,5.073-7.977,9.471-15.041,6.809c-2.168-0.816-3.947-2.213-5.236-3.943c0.287,0.148,0.586,0.283,0.896,0.399
	c1.797,0.678,3.686,0.688,5.388,0.153c-1.669-0.666-2.668-2.309-2.582-4.019c0.218,0.134,0.448,0.249,0.696,0.343
	c0.35,0.131,0.707,0.211,1.062,0.245c-1.624-1.015-2.362-3.063-1.661-4.925c0.006-0.016,0.012-0.032,0.02-0.049
	c0.408,0.482,0.936,0.878,1.558,1.135c-0.771-1.077-1.005-2.508-0.504-3.839c0.265-0.704,0.703-1.292,1.248-1.733
	c1.019,3.035,3.271,5.631,6.403,6.993c0.039-0.306,0.117-0.612,0.229-0.911c0.8-2.121,3.166-3.193,5.287-2.394
	c1.104,0.416,1.927,1.258,2.345,2.269c0.94,0.157,1.881,0.147,2.791-0.014c-0.625,0.788-1.517,1.312-2.49,1.488
	c0.812,0.199,1.629,0.271,2.435,0.227C108.109,88.997,107.205,89.428,106.25,89.686L106.25,89.686z"/>
<path fill="#FFFFFF" d="M59.926,85.203c1.039,2.559-0.192,5.475-2.751,6.514l-20.384,8.277c-2.558,1.039-5.475-0.193-6.514-2.752
	L22,76.859c-1.039-2.559,0.193-5.475,2.751-6.514l20.384-8.278c2.56-1.04,5.475,0.193,6.514,2.751L59.926,85.203z"/>
<path fill="#009EE2" d="M30.365,97.398c-0.037-0.07-0.072-0.141-0.106-0.213C30.294,97.257,30.33,97.327,30.365,97.398z
	 M33.593,85.816c2.696-1.002,3.361-4.49,1.485-7.793c-1.876-3.301-5.547-5.072-8.243-4.07c-2.696,1.003-3.399,4.398-1.522,7.701
	C27.189,84.955,30.896,86.818,33.593,85.816z M52.777,67.6l-1.003-2.47c-1.104-2.718-4.229-4.04-6.949-2.935l-19.766,8.026
	c-2.672,1.086-3.991,4.125-2.987,6.809c1.085-2.174,2.925-4.368,5.344-5.35c2.586-1.051,10.344-4.201,10.344-4.201l-1.52,2.898
	l-3.28,1.332c2.514-0.049,4.7,2.01,5.753,4.604c0.884,2.179,0.435,4.543-0.735,6.57c-1.141,1.979-1.236,2.651-0.788,3.756
	c0.384,0.945,2.823,1.822,4.025,2.104c3.515,0.815,5.127,2.245,6.339,5.231c0.193,0.476,0.326,0.975,0.398,1.489l8.911-3.618
	c2.72-1.104,4.04-4.229,2.936-6.949l-6.271-15.441l-5.559,2.257l2.257,5.56l-1.853,0.752l-2.258-5.56l-5.559,2.259l-0.752-1.854
	l5.559-2.258l-2.257-5.559l1.853-0.752l2.257,5.559L52.777,67.6L52.777,67.6z M34.506,92.219c0.625-0.254,1.192-0.503,1.787-0.744
	c-1.096-0.445-2.097-1.125-2.565-2.277c-0.278-0.684-0.326-1.43-0.257-2.139c-0.303,0.148-0.619,0.285-0.948,0.418
	c-2.153,0.875-4.264,0.92-6.083,0.316l0.791,1.947l2.372,5.841c1.249-1.362,2.907-2.552,4.905-3.362H34.506z M30.648,97.877
	c-0.097-0.145-0.186-0.296-0.269-0.452C30.462,97.581,30.554,97.73,30.648,97.877z M44.507,94.46
	c-1.127-1.526-3.016-1.741-5.777-2.36c-0.887,0.066-1.811,0.267-2.74,0.633c-2.607,1.027-4.602,3.047-5.337,5.148
	c1.374,2.062,4.067,2.955,6.446,1.988l8.295-3.369c-0.079-0.344-0.188-0.686-0.328-1.027C44.919,95.109,44.729,94.771,44.507,94.46
	L44.507,94.46z"/>
<path fill="#009EE2" d="M88.037,22.923H66.703c-2.945,0-5.333,2.388-5.333,5.334v21.332c0,2.945,2.387,5.334,5.333,5.334H77.37v-14
	h-4v-4h4v-3c0-2.761,2.237-5,5-5h5v4h-5c-0.552,0-1,0.448-1,1v3h5.5l-1,4h-4.5v14h6.667c2.943,0,5.333-2.389,5.333-5.334V28.257
	C93.37,25.311,90.982,22.923,88.037,22.923z"/>
</svg>
