<?xml version="1.0" encoding="utf-8"?>
<!-- Generator: Adobe Illustrator 16.0.0, SVG Export Plug-In . SVG Version: 6.00 Build 0)  -->
<!DOCTYPE svg PUBLIC "-//W3C//DTD SVG 1.1//EN" "http://www.w3.org/Graphics/SVG/1.1/DTD/svg11.dtd">
<svg version="1.1" id="Calque_1" xmlns="http://www.w3.org/2000/svg" xmlns:xlink="http://www.w3.org/1999/xlink" x="0px" y="0px"
	 width="140.5px" height="139px" viewBox="0 0 140.5 139" enable-background="new 0 0 140.5 139" xml:space="preserve">
<circle fill="none" stroke="#009EE2" stroke-width="6" stroke-miterlimit="10" cx="70.713" cy="69.506" r="60.674"/>
<g>
	<path fill="#009EE2" d="M74.861,92.604c-1.084-0.795-1.198-1.992-1.198-1.992l-0.406-2.596H60.311l-0.407,2.596
		c0,0-0.113,1.197-1.196,1.992c-1.082,0.797-1.937,1.48-1.082,1.597c0.823,0.11,8.586,0.01,9.159,0c0.574,0.01,8.336,0.11,9.16,0
		C76.798,94.084,75.941,93.402,74.861,92.604z"/>
	<path fill="#009EE2" d="M44.747,70.814c0-1.202-0.975-2.174-2.176-2.174h-10.33c-1.201,0-2.176,0.974-2.176,2.174V93.65
		c0,1.203,0.975,2.176,2.176,2.176h10.331c1.201,0,2.175-0.973,2.175-2.176V70.814L44.747,70.814z M36.327,71.087h2.176
		c0.15,0,0.271,0.121,0.271,0.271s-0.122,0.272-0.271,0.272h-2.176c-0.15,0-0.272-0.124-0.272-0.272
		C36.055,71.207,36.178,71.087,36.327,71.087z M37.325,94.54c-0.602,0-1.089-0.487-1.089-1.088s0.487-1.089,1.089-1.089
		c0.601,0,1.087,0.486,1.087,1.089C38.412,94.053,37.926,94.54,37.325,94.54z M43.388,91.477H31.425V73.262h11.963V91.477
		L43.388,91.477z"/>
	<path fill="#009EE2" d="M112.766,56.129H90.393c-1.686,0-3.051,1.365-3.051,3.05V91.2c0,1.685,1.366,3.052,3.051,3.052h22.373
		c1.687,0,3.051-1.367,3.051-3.052V59.179C115.814,57.494,114.45,56.129,112.766,56.129z M97.197,92.557
		c-0.842,0-1.526-0.682-1.526-1.523s0.685-1.525,1.526-1.525s1.523,0.684,1.523,1.525S98.039,92.557,97.197,92.557z M101.578,92.557
		c-0.842,0-1.523-0.682-1.523-1.523s0.684-1.525,1.523-1.525c0.843,0,1.523,0.684,1.523,1.525
		C103.104,91.875,102.422,92.557,101.578,92.557z M105.961,92.557c-0.843,0-1.523-0.682-1.523-1.523s0.682-1.525,1.523-1.525
		s1.523,0.684,1.523,1.525C107.486,91.875,106.803,92.557,105.961,92.557z M113.909,88.15H89.248V58.797h24.662L113.909,88.15
		L113.909,88.15z"/>
	<path fill="#009EE2" d="M94.284,53.557h3.75v-6.791c0-1.382-1.12-2.5-2.5-2.5H38.035c-1.381,0-2.501,1.119-2.501,2.5v19.302h3.751
		V48.016h55L94.284,53.557L94.284,53.557z"/>
	<path fill="#009EE2" d="M47.32,78.014v7.5h37.45v-7.5H47.32z M66.783,83.479c-0.946,0-1.714-0.769-1.714-1.715
		c0-0.945,0.768-1.715,1.714-1.715c0.947,0,1.715,0.77,1.715,1.715C68.499,82.71,67.73,83.479,66.783,83.479z"/>
</g>
</svg>
