<?xml version="1.0" encoding="utf-8"?>
<!-- Generator: Adobe Illustrator 16.0.0, SVG Export Plug-In . SVG Version: 6.00 Build 0)  -->
<!DOCTYPE svg PUBLIC "-//W3C//DTD SVG 1.1//EN" "http://www.w3.org/Graphics/SVG/1.1/DTD/svg11.dtd">
<svg version="1.1" id="Calque_1" xmlns="http://www.w3.org/2000/svg" xmlns:xlink="http://www.w3.org/1999/xlink" x="0px" y="0px"
	 width="140.5px" height="139px" viewBox="0 0 140.5 139" enable-background="new 0 0 140.5 139" xml:space="preserve">
<circle fill="none" stroke="#3A3A3A" stroke-width="6" stroke-miterlimit="10" cx="70.713" cy="69.506" r="60.674"/>
<path fill="#444444" d="M33.655,97.31v3.037c4.191,0,7.593,3.402,7.593,7.593h3.037C44.285,102.07,39.524,97.31,33.655,97.31z
	 M33.655,103.384v4.556h4.556C38.21,105.425,36.168,103.384,33.655,103.384z M33.655,91.235v3.037
	c7.548,0,13.667,6.119,13.667,13.667h3.037C50.359,98.712,42.88,91.235,33.655,91.235z M56.434,74.545L41.248,74.53
	c-1.678,0-3.038,1.359-3.038,3.037v11.19c1.048,0.252,2.065,0.564,3.038,0.974v-9.127h15.186v19.742h-4.6
	c0.789,1.89,1.275,3.939,1.441,6.074h3.159c1.679,0,3.037-1.357,3.037-3.037V77.567C59.471,75.89,58.113,74.545,56.434,74.545z"/>
<path fill="#444444" d="M113.779,86.273c0-6.279-1.838-11.373-4.109-11.413c0.01,0,0.018-0.001,0.027-0.001h-2.592
	c0,0-6.088,4.573-14.852,6.367c-0.268,1.415-0.438,3.102-0.438,5.047s0.17,3.631,0.438,5.047c8.764,1.794,14.852,6.367,14.852,6.367
	h2.592c-0.01,0-0.018-0.001-0.027-0.001C111.941,97.646,113.779,92.553,113.779,86.273z M108.805,95.961
	c-0.293,0-0.609-0.304-0.773-0.485c-0.395-0.439-0.773-1.124-1.1-1.979c-0.727-1.912-1.127-4.478-1.127-7.223s0.4-5.309,1.127-7.223
	c0.326-0.855,0.705-1.541,1.1-1.979c0.164-0.182,0.48-0.485,0.773-0.485s0.611,0.304,0.773,0.485c0.395,0.438,0.775,1.124,1.1,1.979
	c0.727,1.912,1.127,4.479,1.127,7.223s-0.4,5.309-1.127,7.223c-0.324,0.855-0.705,1.54-1.1,1.979
	C109.416,95.656,109.098,95.961,108.805,95.961z M89.648,86.273c0-1.623,0.118-3.201,0.344-4.659
	c-1.479,0.205-2.778,0.323-4.385,0.323c-2.097,0-2.097,0-2.097,0l-1.733,2.959v2.755l1.733,2.959c0,0,0,0,2.097,0
	c1.605,0,2.904,0.118,4.385,0.323C89.767,89.476,89.648,87.897,89.648,86.273L89.648,86.273z M93.283,92.928l-4-0.767l2.559,10.048
	c0.132,0.521,0.648,0.782,1.146,0.584l3.705-1.483c0.498-0.199,0.697-0.749,0.443-1.222L93.283,92.928z M108.805,90.008
	c-0.113,0-0.234-0.117-0.297-0.188c-0.152-0.169-0.299-0.434-0.424-0.763c-0.281-0.738-0.436-1.726-0.436-2.784
	s0.154-2.046,0.436-2.784c0.125-0.33,0.271-0.593,0.424-0.763c0.062-0.07,0.184-0.188,0.297-0.188s0.236,0.117,0.299,0.188
	c0.152,0.169,0.299,0.433,0.424,0.763c0.279,0.737,0.434,1.726,0.434,2.784s-0.154,2.046-0.434,2.784
	c-0.125,0.329-0.271,0.593-0.424,0.763C109.041,89.891,108.918,90.008,108.805,90.008z"/>
<path fill="#444444" d="M84.73,44.336c0,0.752-0.326,1.315-0.979,1.683L67.106,55.81c-0.305,0.184-0.631,0.275-0.979,0.275
	c-0.326,0-0.653-0.081-0.979-0.245c-0.653-0.389-0.979-0.959-0.979-1.713V34.544c0-0.753,0.326-1.325,0.979-1.713
	c0.674-0.367,1.327-0.355,1.958,0.031l16.645,9.792C84.404,43.021,84.73,43.582,84.73,44.336z"/>
<path fill="none" stroke="#444444" stroke-width="4" stroke-miterlimit="10" d="M96.062,49.917c0,5.334-4.324,9.658-9.658,9.658
	h-31.12c-5.334,0-9.658-4.324-9.658-9.658V38.649c0-5.334,4.324-9.658,9.658-9.658h31.12c5.334,0,9.658,4.324,9.658,9.658V49.917z"
	/>
</svg>
