<?xml version="1.0" encoding="utf-8"?>
<!-- Generator: Adobe Illustrator 16.0.0, SVG Export Plug-In . SVG Version: 6.00 Build 0)  -->
<!DOCTYPE svg PUBLIC "-//W3C//DTD SVG 1.1//EN" "http://www.w3.org/Graphics/SVG/1.1/DTD/svg11.dtd">
<svg version="1.1" id="Calque_1" xmlns="http://www.w3.org/2000/svg" xmlns:xlink="http://www.w3.org/1999/xlink" x="0px" y="0px"
	 width="32px" height="32px" viewBox="0 0 32 32" enable-background="new 0 0 32 32" xml:space="preserve">
<path stroke="#FFFFFF" stroke-miterlimit="10" d="M30.3,26.7l-7.223-6.142c-0.746-0.67-1.545-0.981-2.189-0.95
	c1.703-1.997,2.734-4.587,2.734-7.419c0-6.313-5.119-11.433-11.434-11.433c-6.313,0-11.433,5.12-11.433,11.433
	c0,6.314,5.12,11.433,11.433,11.433c2.832,0,5.422-1.031,7.42-2.734c-0.031,0.645,0.279,1.443,0.949,2.189L26.7,30.3
	c1.053,1.169,2.771,1.268,3.82,0.221C31.567,29.472,31.468,27.753,30.3,26.7z M12.189,19.812c-4.209,0-7.622-3.412-7.622-7.622
	s3.413-7.622,7.622-7.622c4.21,0,7.622,3.413,7.622,7.622S16.399,19.812,12.189,19.812z"/>
<path stroke="#FFFFFF" stroke-miterlimit="10" d="M13.171,16.85c0,0.525-0.426,0.953-0.952,0.953l0,0
	c-0.526,0-0.952-0.428-0.952-0.953V7.827c0-0.525,0.426-0.952,0.952-0.952l0,0c0.526,0,0.952,0.427,0.952,0.952V16.85z"/>
<path stroke="#FFFFFF" stroke-miterlimit="10" d="M17.983,12.238c0,0.526-0.449,0.953-1.004,0.953H7.458
	c-0.554,0-1.004-0.427-1.004-0.953l0,0c0-0.525,0.45-0.952,1.004-0.952h9.521C17.534,11.286,17.983,11.712,17.983,12.238
	L17.983,12.238z"/>
<path d="M12.734,16.574c0,0.479-0.231,0.867-0.516,0.867l0,0c-0.285,0-0.516-0.389-0.516-0.867V8.347
	c0-0.479,0.231-0.868,0.516-0.868l0,0c0.284,0,0.516,0.389,0.516,0.868V16.574z"/>
</svg>
