<?xml version="1.0" encoding="utf-8"?>
<!-- Generator: Adobe Illustrator 16.0.0, SVG Export Plug-In . SVG Version: 6.00 Build 0)  -->
<!DOCTYPE svg PUBLIC "-//W3C//DTD SVG 1.1//EN" "http://www.w3.org/Graphics/SVG/1.1/DTD/svg11.dtd">
<svg version="1.1" id="Calque_1" xmlns="http://www.w3.org/2000/svg" xmlns:xlink="http://www.w3.org/1999/xlink" x="0px" y="0px"
	 width="32px" height="32px" viewBox="0 0 32 32" enable-background="new 0 0 32 32" xml:space="preserve">
<path d="M27.925,20.067L18.738,1.693C18.221,0.655,17.16,0,16,0c-1.161,0-2.22,0.655-2.739,1.693L4.075,20.067
	c-0.474,0.949-0.424,2.076,0.134,2.979c0.558,0.902,1.543,1.452,2.604,1.452h18.372c1.062,0,2.047-0.55,2.604-1.452
	C28.348,22.144,28.399,21.017,27.925,20.067z M17.529,20.671c0,0.424-0.342,0.766-0.766,0.766h-1.531
	c-0.424,0-0.766-0.342-0.766-0.766V19.14c0-0.423,0.342-0.766,0.766-0.766h1.531c0.424,0,0.766,0.343,0.766,0.766V20.671z
	 M17.529,14.547c0,0.423-0.342,0.766-0.766,0.766h-1.531c-0.424,0-0.766-0.343-0.766-0.766V6.891c0-0.423,0.342-0.766,0.766-0.766
	h1.531c0.424,0,0.766,0.343,0.766,0.766V14.547z"/>
</svg>
