<?xml version="1.0" encoding="utf-8"?>
<!-- Generator: Adobe Illustrator 16.0.0, SVG Export Plug-In . SVG Version: 6.00 Build 0)  -->
<!DOCTYPE svg PUBLIC "-//W3C//DTD SVG 1.1//EN" "http://www.w3.org/Graphics/SVG/1.1/DTD/svg11.dtd">
<svg version="1.1" id="Calque_1" xmlns="http://www.w3.org/2000/svg" xmlns:xlink="http://www.w3.org/1999/xlink" x="0px" y="0px"
	 width="83.336px" height="84.751px" viewBox="0 0 83.336 84.751" enable-background="new 0 0 83.336 84.751" xml:space="preserve">
<path fill="#FFFEFE" d="M31.59,1.405c-2.271,0.35-2.136,2.104-1.919,5.353c0.23,3.239-0.284,6.187-2.957,7.909
	c-0.516,0.291-1.015,0.579-1.509,0.892c-0.037,0.021-0.05,0.018-0.083,0.032c-2.782,1.599-5.635,0.69-8.417-1.004
	c-2.776-1.702-4.271-2.631-5.628-0.779c-1.354,1.839-0.44,0.589-2.617,3.57c-0.024,0.03-0.04,0.048-0.064,0.086
	c-2.187,2.977-1.275,1.729-2.615,3.564c-1.358,1.855-0.023,3.001,2.433,5.142c2.436,2.12,4.143,4.546,3.506,7.622
	c-0.161,0.571-0.303,1.148-0.427,1.729c-0.018,0.045-0.043,0.063-0.054,0.112c-0.829,3.096-3.492,4.472-6.66,5.238
	c-3.164,0.762-4.886,1.165-4.533,3.433c0.348,2.249,0.109,0.718,0.676,4.377c0.002,0.036,0.008,0.062,0.014,0.1
	c0.557,3.659,0.324,2.124,0.673,4.371c0.35,2.278,2.106,2.144,5.356,1.919c3.234-0.224,6.172,0.287,7.901,2.948
	c0.289,0.517,0.577,1.027,0.899,1.521c0.02,0.036,0.013,0.059,0.037,0.094c1.584,2.769,0.686,5.634-1.012,8.403
	c-1.698,2.783-2.625,4.277-0.784,5.635c1.846,1.343,0.597,0.43,3.575,2.623c0.022,0.015,0.031,0.026,0.053,0.042
	c0.01,0.007,0.018,0.011,0.031,0.019c2.979,2.184,1.73,1.263,3.571,2.615c1.853,1.351,2.997,0.018,5.141-2.438
	c2.119-2.438,4.562-4.154,7.651-3.502c0.553,0.156,1.113,0.299,1.675,0.414c0.061,0.021,0.075,0.053,0.142,0.067
	c3.081,0.833,4.468,3.498,5.229,6.659c0.764,3.165,1.165,4.882,3.433,4.536c2.25-0.353,0.725-0.116,4.379-0.678
	c0.022-0.001,0.035-0.003,0.059-0.007c0.019-0.003,0.029-0.002,0.042-0.007c3.65-0.564,2.126-0.336,4.379-0.676
	c2.268-0.347,2.14-2.103,1.908-5.355c-0.23-3.247,0.286-6.204,2.987-7.923l0,0c0.497-0.284,0.991-0.563,1.47-0.871
	c0.036-0.028,0.058-0.016,0.104-0.041c2.77-1.59,5.632-0.686,8.409,1.013c2.779,1.695,4.274,2.625,5.629,0.775
	c1.343-1.839,0.43-0.587,2.625-3.565c0.013-0.021,0.023-0.038,0.032-0.052c0.014-0.014,0.017-0.025,0.025-0.032
	c2.184-2.984,1.263-1.735,2.613-3.574c1.352-1.851,0.023-2.997-2.435-5.139c-2.449-2.129-4.17-4.574-3.501-7.677
	c0.15-0.545,0.288-1.089,0.407-1.645c0.02-0.058,0.051-0.081,0.067-0.145c0.834-3.088,3.495-4.466,6.664-5.227
	c3.156-0.773,4.877-1.171,4.533-3.439c-0.351-2.249-0.119-0.721-0.672-4.379c-0.006-0.022-0.009-0.036-0.015-0.062
	c0-0.012-0.001-0.026-0.007-0.037c-0.567-3.655-0.333-2.12-0.675-4.379c-0.354-2.263-2.105-2.132-5.361-1.91
	c-3.245,0.232-6.209-0.289-7.917-2.985c-0.005-0.003-0.007-0.004-0.007-0.004c-0.284-0.497-0.563-0.987-0.867-1.462
	c-0.021-0.036-0.016-0.063-0.039-0.104c-1.594-2.771-0.689-5.631,1.01-8.411c1.698-2.779,2.622-4.272,0.778-5.63
	c-1.837-1.35-0.595-0.437-3.568-2.623c-0.027-0.014-0.046-0.029-0.074-0.049c0-0.007-0.006-0.007-0.012-0.009
	c-2.98-2.193-1.736-1.267-3.571-2.616c-1.854-1.358-3.004-0.022-5.141,2.433c-2.12,2.446-4.568,4.167-7.669,3.5
	c-0.546-0.152-1.101-0.289-1.663-0.409c-0.057-0.021-0.07-0.05-0.13-0.065c-3.096-0.836-4.478-3.494-5.24-6.662
	c-0.763-3.169-1.168-4.876-3.432-4.534c-2.276,0.354-0.673,0.107-4.482,0.693C32.315,1.296,33.841,1.065,31.59,1.405z
	 M55.269,40.718c1.116,7.234-3.847,14.001-11.083,15.115c-7.227,1.113-13.997-3.848-15.109-11.079
	c-1.114-7.236,3.847-14.005,11.077-15.12C47.388,28.524,54.158,33.484,55.269,40.718z"/>
</svg>
