<?xml version="1.0" encoding="utf-8"?>
<!-- Generator: Adobe Illustrator 16.0.0, SVG Export Plug-In . SVG Version: 6.00 Build 0)  -->
<!DOCTYPE svg PUBLIC "-//W3C//DTD SVG 1.1//EN" "http://www.w3.org/Graphics/SVG/1.1/DTD/svg11.dtd">
<svg version="1.1" id="Calque_1" xmlns="http://www.w3.org/2000/svg" xmlns:xlink="http://www.w3.org/1999/xlink" x="0px" y="0px"
	 width="83.336px" height="84.751px" viewBox="0 0 83.336 84.751" enable-background="new 0 0 83.336 84.751" xml:space="preserve">
<path fill="#009FE3" d="M30.937,2.691c-2.2,0.339-2.069,2.039-1.859,5.185c0.223,3.137-0.275,5.992-2.864,7.661
	c-0.5,0.282-0.983,0.561-1.461,0.864c-0.036,0.021-0.048,0.018-0.081,0.031c-2.695,1.548-5.458,0.669-8.153-0.973
	c-2.689-1.648-4.137-2.548-5.451-0.754c-1.311,1.781-0.427,0.57-2.535,3.458c-0.023,0.029-0.039,0.046-0.062,0.084
	c-2.118,2.883-1.235,1.674-2.533,3.452c-1.315,1.797-0.022,2.908,2.356,4.981c2.359,2.054,4.013,4.403,3.396,7.383
	c-0.156,0.553-0.293,1.112-0.414,1.675c-0.017,0.044-0.042,0.061-0.052,0.108c-0.803,2.999-3.383,4.331-6.451,5.073
	c-3.065,0.738-4.732,1.128-4.391,3.325c0.337,2.178,0.106,0.696,0.655,4.24c0.001,0.035,0.007,0.06,0.013,0.097
	c0.539,3.544,0.314,2.057,0.651,4.233c0.339,2.207,2.041,2.077,5.188,1.858c3.133-0.216,5.979,0.278,7.653,2.855
	c0.28,0.501,0.559,0.995,0.872,1.473c0.019,0.035,0.012,0.057,0.036,0.091c1.534,2.682,0.664,5.457-0.98,8.139
	c-1.645,2.696-2.542,4.143-0.759,5.458c1.788,1.301,0.578,0.416,3.463,2.541c0.021,0.014,0.03,0.026,0.051,0.041
	c0.01,0.007,0.017,0.01,0.03,0.018c2.885,2.116,1.676,1.223,3.459,2.533c1.794,1.309,2.903,0.018,4.979-2.362
	c2.053-2.362,4.418-4.024,7.412-3.393c0.535,0.151,1.078,0.29,1.622,0.401c0.059,0.02,0.073,0.051,0.137,0.065
	c2.984,0.807,4.328,3.388,5.065,6.45c0.74,3.066,1.128,4.729,3.325,4.394c2.18-0.342,0.702-0.112,4.242-0.657
	c0.021-0.001,0.034-0.002,0.057-0.006c0.018-0.003,0.028-0.002,0.041-0.007c3.536-0.546,2.06-0.326,4.242-0.655
	c2.196-0.336,2.072-2.037,1.848-5.188c-0.223-3.145,0.277-6.009,2.894-7.675l0,0c0.481-0.275,0.96-0.546,1.424-0.843
	c0.035-0.027,0.056-0.015,0.1-0.04c2.683-1.54,5.455-0.664,8.146,0.981c2.692,1.642,4.14,2.542,5.452,0.75
	c1.301-1.781,0.416-0.568,2.542-3.454c0.012-0.021,0.023-0.037,0.031-0.051c0.013-0.013,0.016-0.024,0.024-0.031
	c2.115-2.89,1.223-1.68,2.531-3.462c1.31-1.793,0.023-2.903-2.358-4.978c-2.373-2.062-4.039-4.43-3.391-7.436
	c0.146-0.528,0.279-1.055,0.395-1.593c0.019-0.057,0.049-0.078,0.065-0.14c0.808-2.992,3.386-4.326,6.455-5.063
	c3.057-0.749,4.724-1.134,4.391-3.332c-0.34-2.178-0.116-0.699-0.651-4.242c-0.006-0.021-0.008-0.035-0.014-0.06
	c0-0.012-0.001-0.025-0.007-0.036c-0.549-3.541-0.322-2.054-0.653-4.242c-0.343-2.191-2.04-2.065-5.193-1.85
	c-3.143,0.225-6.014-0.28-7.668-2.892c-0.005-0.003-0.006-0.004-0.006-0.004c-0.275-0.481-0.546-0.956-0.84-1.416
	c-0.021-0.035-0.015-0.061-0.038-0.101c-1.544-2.684-0.668-5.454,0.978-8.147c1.645-2.692,2.54-4.138,0.754-5.453
	c-1.779-1.307-0.576-0.423-3.457-2.54c-0.026-0.014-0.044-0.028-0.072-0.048c0-0.007-0.006-0.007-0.011-0.009
	c-2.887-2.125-1.682-1.227-3.459-2.534c-1.796-1.316-2.91-0.021-4.979,2.356c-2.054,2.369-4.425,4.036-7.428,3.391
	c-0.529-0.147-1.066-0.28-1.611-0.396c-0.055-0.02-0.068-0.049-0.126-0.063c-2.999-0.81-4.337-3.384-5.076-6.453
	c-0.739-3.07-1.131-4.723-3.324-4.392c-2.205,0.343-0.652,0.104-4.342,0.671C31.638,2.585,33.117,2.361,30.937,2.691z M53.872,40.77
	c1.081,7.007-3.726,13.562-10.735,14.641c-7,1.078-13.558-3.728-14.635-10.731c-1.079-7.009,3.726-13.565,10.729-14.646
	C46.238,28.958,52.795,33.763,53.872,40.77z"/>
</svg>
